# xmcd
#
# Track frame offsets: 
#        150
#        7381
#        29630
#        52402
#        70056
#        92726
#        107377
#        113243
#        121160
#        146885
#        169292
#        203518
#        225171
#        248450
#        263495
#        284140
#
# Disc length: 3795 seconds
#
# Revision: 0
# Processed by: cddbd v1.5.2PL0 Copyright (c) Steve Scherf et al.
# Submitted via: ExactAudioCopy v1.3
#
DISCID=e40ed110
DTITLE=Tank and the Bangas - Think Tank
DYEAR=2013
DGENRE=Funk
TTITLE0=Intro
TTITLE1=Boxes and Squares
TTITLE2=Rollercoasters
TTITLE3=Oh Heart
TTITLE4=WalMart
TTITLE5=The Brady's
TTITLE6=The Ass
TTITLE7=Interlude (God Push Me)
TTITLE8=Human
TTITLE9=Rhythym of Life
TTITLE10=Hands
TTITLE11=Eggs Over Easy
TTITLE12=Themeparks
TTITLE13=Ripperton Love
TTITLE14=Instructions on Being
TTITLE15=Hidden Track
EXTD=
EXTT0=
EXTT1=
EXTT2=
EXTT3=
EXTT4=
EXTT5=
EXTT6=
EXTT7=
EXTT8=
EXTT9=
EXTT10=
EXTT11=
EXTT12=
EXTT13=
EXTT14=
EXTT15=
PLAYORDER=
